<?xml version="1.0" encoding="UTF-8" standalone="no"?>
<!DOCTYPE svg PUBLIC "-//W3C//DTD SVG 1.1//EN" "http://www.w3.org/Graphics/SVG/1.1/DTD/svg11.dtd">
<svg width="100%" height="100%" viewBox="0 0 1190 426" version="1.1" xmlns="http://www.w3.org/2000/svg" xmlns:xlink="http://www.w3.org/1999/xlink" xml:space="preserve" xmlns:serif="http://www.serif.com/" style="fill-rule:evenodd;clip-rule:evenodd;stroke-linejoin:round;stroke-miterlimit:2;">
    <g transform="matrix(1,0,0,1,-2809,-439)">
        <g id="Artboard2" transform="matrix(0.590271,0,0,0.201413,2797.36,189.28)">
            <rect x="20.239" y="1240.76" width="2014.82" height="2109.64" style="fill:none;"/>
            <g transform="matrix(34.5992,0,0,101.398,20965.5,-60329.4)">
                <path d="M-568.242,622.146L-568.242,623.177L-568.832,623.177L-568.832,620.359L-567.677,620.359C-567.029,620.359 -566.658,620.7 -566.658,621.257C-566.658,621.618 -566.845,621.931 -567.17,622.058L-566.576,623.177L-567.244,623.177L-567.769,622.146L-568.242,622.146ZM-568.242,620.819L-568.242,621.718L-567.734,621.718C-567.437,621.718 -567.263,621.548 -567.263,621.269C-567.263,620.995 -567.447,620.819 -567.74,620.819L-568.242,620.819ZM-565,620.31C-564.166,620.31 -563.64,620.87 -563.64,621.769C-563.64,622.665 -564.166,623.226 -565,623.226C-565.836,623.226 -566.359,622.665 -566.359,621.769C-566.359,620.87 -565.836,620.31 -565,620.31ZM-565,620.802C-565.461,620.802 -565.757,621.177 -565.757,621.769C-565.757,622.359 -565.463,622.732 -565,622.732C-564.539,622.732 -564.244,622.359 -564.244,621.769C-564.244,621.177 -564.539,620.802 -565,620.802ZM-561.99,620.31C-561.156,620.31 -560.631,620.87 -560.631,621.769C-560.631,622.665 -561.156,623.226 -561.99,623.226C-562.826,623.226 -563.349,622.665 -563.349,621.769C-563.349,620.87 -562.826,620.31 -561.99,620.31ZM-561.99,620.802C-562.451,620.802 -562.748,621.177 -562.748,621.769C-562.748,622.359 -562.453,622.732 -561.99,622.732C-561.529,622.732 -561.234,622.359 -561.234,621.769C-561.234,621.177 -561.529,620.802 -561.99,620.802ZM-559.662,623.177L-560.252,623.177L-560.252,620.359L-558.406,620.359L-558.406,620.845L-559.662,620.845L-559.662,621.601L-558.515,621.601L-558.515,622.067L-559.662,622.067L-559.662,623.177ZM-557.468,623.177L-558.058,623.177L-558.058,620.359L-557.468,620.359L-557.468,623.177ZM-556.435,623.177L-557,623.177L-557,620.359L-556.507,620.359L-555.191,622.194L-555.175,622.194L-555.175,620.359L-554.611,620.359L-554.611,623.177L-555.099,623.177L-556.418,621.331L-556.435,621.331L-556.435,623.177ZM-551.623,621.993C-551.623,622.761 -552.088,623.226 -552.873,623.226C-553.715,623.226 -554.23,622.675 -554.23,621.759C-554.23,620.857 -553.715,620.31 -552.886,620.31C-552.228,620.31 -551.732,620.698 -551.648,621.269L-552.24,621.269C-552.326,620.974 -552.566,620.798 -552.884,620.798C-553.349,620.798 -553.629,621.151 -553.629,621.751C-553.629,622.362 -553.332,622.735 -552.863,622.735C-552.478,622.735 -552.211,622.499 -552.199,622.15L-552.197,622.105L-552.81,622.105L-552.81,621.675L-551.623,621.675L-551.623,621.993ZM-548.472,623.177L-548.689,622.942C-548.898,623.122 -549.22,623.228 -549.562,623.228C-550.16,623.228 -550.545,622.917 -550.545,622.439C-550.545,622.118 -550.382,621.886 -550.023,621.689C-549.994,621.673 -549.904,621.624 -549.896,621.62C-550.15,621.359 -550.246,621.183 -550.246,620.976C-550.246,620.599 -549.906,620.321 -549.447,620.321C-548.986,620.321 -548.662,620.587 -548.662,620.966C-548.662,621.255 -548.841,621.485 -549.232,621.698L-548.697,622.276C-548.629,622.155 -548.595,621.985 -548.595,621.743L-548.595,621.595L-548.121,621.595L-548.121,621.776C-548.121,622.12 -548.207,622.417 -548.359,622.628L-547.834,623.177L-548.472,623.177ZM-549.496,621.433C-549.24,621.3 -549.136,621.175 -549.136,621.005C-549.136,620.825 -549.261,620.7 -549.445,620.7C-549.627,620.7 -549.757,620.829 -549.757,621.005C-549.757,621.136 -549.687,621.247 -549.496,621.433ZM-549.713,621.96C-549.925,622.095 -550.011,622.22 -550.011,622.394C-550.011,622.646 -549.806,622.814 -549.504,622.814C-549.3,622.814 -549.097,622.737 -548.988,622.618L-549.634,621.919C-549.656,621.929 -549.695,621.95 -549.713,621.96ZM-567.586,627.226C-568.406,627.226 -568.92,626.677 -568.92,625.767C-568.92,624.859 -568.402,624.31 -567.586,624.31C-566.908,624.31 -566.392,624.739 -566.347,625.37L-566.922,625.37C-566.976,625.025 -567.242,624.798 -567.586,624.798C-568.031,624.798 -568.318,625.171 -568.318,625.765C-568.318,626.366 -568.035,626.737 -567.584,626.737C-567.234,626.737 -566.982,626.532 -566.92,626.198L-566.345,626.198C-566.412,626.827 -566.894,627.226 -567.586,627.226ZM-564.16,626.689L-564.16,627.177L-565.982,627.177L-565.982,624.359L-565.392,624.359L-565.392,626.689L-564.16,626.689ZM-561.965,627.177L-562.179,626.493L-563.17,626.493L-563.384,627.177L-563.99,627.177L-563.011,624.359L-562.318,624.359L-561.338,627.177L-561.965,627.177ZM-562.681,624.898L-563.043,626.052L-562.306,626.052L-562.668,624.898L-562.681,624.898ZM-561.05,624.359L-559.974,624.359C-559.129,624.359 -558.631,624.862 -558.631,625.757C-558.631,626.651 -559.129,627.177 -559.974,627.177L-561.05,627.177L-561.05,624.359ZM-560.461,624.845L-560.461,626.689L-560.045,626.689C-559.517,626.689 -559.232,626.368 -559.232,625.759C-559.232,625.169 -559.525,624.845 -560.045,624.845L-560.461,624.845ZM-558.252,624.359L-557.175,624.359C-556.33,624.359 -555.832,624.862 -555.832,625.757C-555.832,626.651 -556.33,627.177 -557.175,627.177L-558.252,627.177L-558.252,624.359ZM-557.662,624.845L-557.662,626.689L-557.246,626.689C-556.718,626.689 -556.433,626.368 -556.433,625.759C-556.433,625.169 -556.726,624.845 -557.246,624.845L-557.662,624.845ZM-554.863,627.177L-555.453,627.177L-555.453,624.359L-554.863,624.359L-554.863,627.177ZM-553.83,627.177L-554.394,627.177L-554.394,624.359L-553.902,624.359L-552.586,626.194L-552.57,626.194L-552.57,624.359L-552.006,624.359L-552.006,627.177L-552.494,627.177L-553.812,625.331L-553.83,625.331L-553.83,627.177ZM-549.017,625.993C-549.017,626.761 -549.482,627.226 -550.267,627.226C-551.109,627.226 -551.625,626.675 -551.625,625.759C-551.625,624.857 -551.109,624.31 -550.281,624.31C-549.623,624.31 -549.127,624.698 -549.043,625.269L-549.634,625.269C-549.72,624.974 -549.961,624.798 -550.279,624.798C-550.744,624.798 -551.023,625.151 -551.023,625.751C-551.023,626.362 -550.726,626.735 -550.257,626.735C-549.873,626.735 -549.605,626.499 -549.593,626.15L-549.591,626.105L-550.205,626.105L-550.205,625.675L-549.017,625.675L-549.017,625.993Z" style="fill:rgb(69,69,69);"/>
            </g>
            <g transform="matrix(162.141,0,0,557.746,100872,-309119)">
                <path d="M-612.813,558.547L-613.339,558.547L-613.389,558.307L-613.667,558.307L-613.719,558.547L-614.222,558.547L-613.899,556.993L-613.136,556.993L-612.813,558.547ZM-613.426,557.984L-613.521,557.464L-613.531,557.464L-613.629,557.984L-613.426,557.984ZM-611.696,557.416L-612.026,557.416L-612.026,558.547L-612.56,558.547L-612.56,557.416L-612.907,557.416L-612.885,556.993L-611.666,556.993L-611.696,557.416ZM-610.282,558.092C-610.282,558.396 -610.47,558.547 -610.847,558.547L-611.556,558.547L-611.556,556.993L-610.857,556.993C-610.67,556.993 -610.532,557.026 -610.443,557.093C-610.354,557.16 -610.309,557.263 -610.309,557.401C-610.309,557.54 -610.368,557.646 -610.484,557.721L-610.484,557.731C-610.349,557.793 -610.282,557.913 -610.282,558.092ZM-610.947,557.641C-610.917,557.641 -610.895,557.631 -610.881,557.611C-610.867,557.591 -610.86,557.557 -610.86,557.507C-610.86,557.458 -610.867,557.423 -610.881,557.401C-610.895,557.379 -610.918,557.368 -610.95,557.368L-611.023,557.368L-611.023,557.641L-610.947,557.641ZM-610.95,558.237C-610.905,558.237 -610.875,558.227 -610.86,558.208C-610.845,558.189 -610.837,558.149 -610.837,558.087C-610.837,558.025 -610.845,557.981 -610.861,557.955C-610.877,557.93 -610.907,557.917 -610.95,557.917L-611.023,557.917L-611.023,558.237L-610.95,558.237Z" style="fill:rgb(50,90,151);"/>
            </g>
            <g transform="matrix(31.3394,0,0,86.0453,13606.2,-47556)">
                <path d="M-400.922,590.692L-430.343,590.692L-430.343,576.432C-430.343,576.242 -430.245,576.066 -430.087,575.972L-423.04,571.767C-422.882,571.674 -422.689,571.675 -422.533,571.771L-416.299,575.609C-415.774,575.933 -415.123,575.933 -414.598,575.61L-408.618,571.934C-408.463,571.839 -408.271,571.837 -408.114,571.928L-401.181,575.982C-401.021,576.076 -400.922,576.253 -400.922,576.445L-400.922,588.927L-400.922,590.692Z" style="fill:rgb(190,213,231);"/>
            </g>
            <g transform="matrix(3.02737,0,0,8.87218,-2806.82,-5153.01)">
                <path d="M975.891,949.404L943.091,949.404L943.091,803.051C943.091,797.158 946.253,791.718 951.373,788.802L1041.7,737.346C1046.8,734.439 1053.07,734.482 1058.13,737.458L1121.34,774.625L1181.96,739.039C1186.97,736.094 1193.18,736.027 1198.26,738.864L1287.56,788.732C1292.75,791.63 1295.97,797.108 1295.97,803.051L1295.97,949.404L1263.17,949.404L1263.17,931.968C1263.17,931.968 1263.17,833.749 1263.17,815.557C1263.17,813.779 1262.21,812.14 1260.65,811.273C1249.43,805.009 1204.01,779.644 1192.92,773.449C1191.4,772.601 1189.54,772.621 1188.04,773.502C1176.73,780.144 1129.63,807.789 1129.63,807.789C1124.5,810.8 1118.14,810.798 1113.02,807.783C1113.02,807.783 1063.78,778.832 1052.13,771.984C1050.62,771.093 1048.74,771.08 1047.22,771.95C1035.97,778.356 989.636,804.753 978.369,811.172C976.837,812.044 975.891,813.672 975.891,815.435C975.891,835.065 975.891,949.404 975.891,949.404Z" style="fill:rgb(50,90,151);"/>
            </g>
        </g>
    </g>
</svg>
